<mxfile host="app.diagrams.net" modified="2024-02-14T20:46:57.369Z" agent="Mozilla/5.0 (Windows NT 10.0; Win64; x64) AppleWebKit/537.36 (KHTML, like Gecko) Chrome/120.0.0.0 Safari/537.36" version="23.1.4" etag="UAlFJyZuiCSBc2V5O0H3" type="github">
  <diagram name="Seite-1" id="Ixm3G-LhtgzuqgJ7Wsa8">
    <mxGraphModel>
      <root>
        <mxCell id="0" />
        <mxCell id="1" parent="0" />
      </root>
    </mxGraphModel>
  </diagram>
</mxfile>
